<svg width="123" height="84"><path d="M122.108 0c-.264 14.072-23.273 43.275-43.42 55.942C56.887 69.657 42.432 73.247 9.286 72.977c1.236 1.632 2.27 2.873 3.168 4.2.984 1.44 1.961 2.916 2.658 4.5.226.49-.25 1.68-.761 2.003-.48.298-1.688.161-2.113-.26C8.612 79.806 5.065 76.1 1.56 72.365.39 71.12.425 69.783 1.848 68.643c5.248-4.192 10.43-8.452 15.759-12.538 1.252-.963 2.982-1.32 4.9-2.127.299 4.542-3.172 5.614-5.029 7.725-1.954 2.233-4.314 4.113-6.975 6.606 9.9 1.603 18.988 1.301 27.982-.4 33.04-6.244 57.419-24.879 74.971-53.043 2.287-3.663 4.152-7.595 6.25-11.38.588-1.02 1.333-1.936 2.402-3.486Z"/></svg>