<svg width="94" height="171"><path d="M68.484 154.664c-.817.254-1.138.467-1.421.431-22.827-3.5-41.493-14.012-54.882-33.079-3.398-4.848-5.44-10.427-6.287-16.367-1.833-12.814 4.53-24.753 16.178-30.343 6.035-2.893 12.256-4.707 19.084-3.527 1.612 2.71 3.027 5.478 4.808 8.003 2.805 3.97 6.591 6.606 11.551 7.21 3.732.454 6.669-.691 7.63-3.068 1.212-2.993.061-5.717-2.13-7.479-3.054-2.47-6.506-4.519-9.978-6.386-2.247-1.213-4.835-1.81-7.225-2.66-2.92-11.962 5.752-21.173 20.518-21.718 1.066 1.406 2.12 2.98 3.36 4.385 4.462 5.054 9.945 8.102 16.847 7.724 2.59-.14 5.222-.892 6.354-3.736.872-2.2-.3-5.032-3.056-7.145-4.382-3.349-9.526-4.857-14.867-5.794-1.859-.323-3.736-.522-5.528-.768C64.23 22.057 74.864 3.26 93.165 3.914c-.673-1.217-.934-2.393-1.653-2.81C90.72.647 89.474.656 88.516.85c-9.086 1.88-16.58 6.082-20.582 14.931-2.977 6.597-4.036 13.575-3.599 20.791.059 1.026.098 2.06.122 3.088.003.15-.13.31-.338.768-.902.277-2.025.667-3.173.939C46.724 44.746 41.2 51.22 40.08 66.247c-1.413.113-2.889.24-4.377.336-8.754.555-16.544 3.549-23.225 9.249C1.481 85.202-2.237 99.498 2.574 113.6c2.62 7.675 6.787 14.401 12.356 20.249 13.514 14.163 29.77 23.004 49.435 25.081 1.037.112 2.069.237 3.094.377.138.025.262.184.926.694-3.049 2.182-6.395 3.18-9.645 4.36-3.189 1.155-6.431 2.181-9.917 3.352 1.358 2.488 3.148 2.956 5.095 2.812 2.24-.171 4.59-.213 6.646-.974 5.525-2.031 11.033-4.16 16.313-6.731 4.204-2.038 4.439-4.852 1.065-7.564a2477.52 2477.52 0 0 0-21.598-17.067c-1.134-.889-2.478-1.493-4.124-2.463-1.005 2.955.489 4.209 1.804 5.455 4.68 4.392 9.38 8.742 14.46 13.483ZM88.58 52.299c-7.252 1.887-13.377-.736-16.164-6.825 5.87 1.175 11.402 2.093 16.164 6.825ZM61.192 81.648c-6.455 1.07-10.856-1.815-12.748-8.167 5.08 1.581 9.664 3.26 12.748 8.167Z"/></svg>