<svg
   viewBox="0 0 300 300"
   version="1.1"
   id="svg5"
   xmlns="http://www.w3.org/2000/svg"
   xmlns:svg="http://www.w3.org/2000/svg">
   <defs
     id="defs2" /><g
     id="layer1"><path
       id="rect1849"
       style="color:#000000;stroke-width:0.377291;stroke-linecap:round;stroke-linejoin:round;"
       d="m 145.43445,72.904522 c -7.33919,0 -13.34218,5.25034 -13.34218,11.66962 0,1.0773 0.16992,2.12139 0.486,3.11357 l -30.97801,16.358978 c -2.410999,-3.06371 -6.447268,-5.082618 -10.997503,-5.082618 -7.339196,0 -13.341876,5.250648 -13.341876,11.669928 0,5.35212 4.173215,9.89081 9.81434,11.25226 v 64.14952 c -4.211377,1.96783 -7.093717,5.85355 -7.093717,10.30127 0,6.41929 6.002677,11.67054 13.341877,11.67054 3.129965,0 6.016624,-0.9556 8.298519,-2.54903 l 33.24169,14.90098 c -0.0334,0.33494 -0.0513,0.6737 -0.0513,1.0159 0,6.41929 6.00362,11.66962 13.34281,11.66962 7.30978,0 13.29309,-5.20848 13.34095,-11.59264 l 37.6423,-17.78607 c 2.45114,2.64381 6.19069,4.34124 10.36279,4.34124 7.3392,0 13.34219,-5.25125 13.34219,-11.67054 0,-6.41928 -6.00299,-11.66962 -13.34219,-11.66962 -0.0893,0 -0.17822,0.001 -0.26711,0.003 v -62.64236 c 5.96848,-1.15811 10.46605,-5.8379 10.46605,-11.39416 0,-6.41928 -6.00269,-11.669928 -13.34187,-11.669928 -4.98149,0 -9.34691,2.419608 -11.63809,5.981038 L 158.12894,88.155472 c 0.41952,-1.12969 0.64739,-2.33297 0.64739,-3.58102 0,-6.41929 -6.00268,-11.66993 -13.34188,-11.66993 z m 0,4.36382 c 4.64297,0 8.35355,3.24479 8.35355,7.3058 0,0.89928 -0.18223,1.75858 -0.51599,2.55151 a 3.20248,2.8010725 0 0 0 -1.40421,1.05022 c -1.4055,1.92353 -3.82353,3.08355 -6.43335,3.08605 -2.78188,-0.002 -5.33095,-1.31589 -6.68037,-3.44375 a 3.20248,2.8010725 0 0 0 -1.31579,-1.10711 c -0.23245,-0.67489 -0.3577,-1.39221 -0.3577,-2.13692 0,-4.06101 3.71089,-7.3058 8.35386,-7.3058 z m -10.31116,15.61854 c 2.62535,2.48994 6.3411,3.97479 10.30838,3.97675 a 3.20248,2.8010725 0 0 0 0.005,0 c 3.77515,-0.002 7.33475,-1.35055 9.94141,-3.6444 l 36.98533,16.970198 c -0.006,0.14814 -0.0555,0.2925 -0.0556,0.44086 a 3.20248,2.8010725 0 0 0 0,0.006 c 0.004,5.67015 4.4838,10.47349 10.522,11.85729 v 63.04736 c -4.47549,2.11742 -7.37553,6.24045 -7.37907,10.795 a 3.20248,2.8010725 0 0 0 0,0.006 c 0.001,0.86023 0.11144,1.7147 0.31597,2.5512 L 160.48291,215.565 c -2.40386,-3.886 -7.07186,-6.47778 -12.32782,-6.47818 a 3.20248,2.8010725 0 0 0 -6.2e-4,0 c -4.8465,6e-4 -9.23552,2.21082 -11.77814,5.65735 L 106.16999,201.2035 c 0.75806,-1.52962 1.202,-3.17322 1.20326,-4.86373 a 3.20248,2.8010725 0 0 0 0,-3.1e-4 3.20248,2.8010725 0 0 0 0,-3.1e-4 3.20248,2.8010725 0 0 0 0,-3e-4 3.20248,2.8010725 0 0 0 0,-3.1e-4 3.20248,2.8010725 0 0 0 0,-3.2e-4 3.20248,2.8010725 0 0 0 0,-3e-4 3.20248,2.8010725 0 0 0 0,-3.1e-4 c -8e-5,-6.707 -6.24494,-12.1988 -13.893733,-12.27465 V 122.7129 c 6.600773,-0.99745 11.681423,-6.0334 11.681363,-12.07833 a 3.20248,2.8010725 0 0 0 0,-3.2e-4 3.20248,2.8010725 0 0 0 0,-3.1e-4 c -1.1e-4,-0.61401 -0.0747,-1.22339 -0.179,-1.82838 z M 90.602757,103.32728 c 3.333122,0 6.185665,1.67276 7.529944,4.11896 a 3.20248,2.8010725 0 0 0 0.182406,0.95129 c 0.291681,0.71828 0.441027,1.47484 0.441174,2.23709 -3.67e-4,3.72522 -3.383444,6.68564 -7.642171,6.68717 -0.196039,-1.8e-4 -0.39227,-0.008 -0.587716,-0.021 a 3.20248,2.8010725 0 0 0 -1.944318,0.42756 c -3.653541,-0.7823 -6.331942,-3.64398 -6.331942,-7.09463 0,-4.06102 3.709652,-7.30642 8.352623,-7.30642 z m 115.755423,0 c 4.64297,0 8.35263,3.24571 8.35263,7.30672 0,3.61402 -2.93803,6.58208 -6.85722,7.19173 a 3.20248,2.8010725 0 0 0 -1.72573,-0.51383 c -4.16273,-0.10931 -7.41139,-3.03505 -7.41587,-6.67728 6e-4,-0.48395 0.0619,-0.9667 0.18179,-1.43915 a 3.20248,2.8010725 0 0 0 -0.1385,-1.60887 c 1.31117,-2.52198 4.20672,-4.25932 7.6029,-4.25932 z m -56.3064,3.12933 a 2.9116471,2.9116471 0 0 0 -0.79392,0.12397 c -23.71435,0.45167 -42.84921,21.07268 -42.84921,46.39436 0,25.32167 19.13486,45.9424 42.84921,46.39406 a 2.9116471,2.9116471 0 0 0 0.79392,0.12397 2.9116471,2.9116471 0 0 0 0.79393,-0.12397 c 23.71452,-0.45145 42.84952,-21.07225 42.84952,-46.39406 0,-25.32182 -19.135,-45.94291 -42.84952,-46.39436 a 2.9116471,2.9116471 0 0 0 -0.79393,-0.12397 z m 2.91169,5.94734 c 6.13474,0.99653 11.70504,5.11327 15.99572,11.4764 0.9274,1.37535 1.79059,2.85425 2.58212,4.42411 l -18.57784,-0.65388 z m -5.82337,3.2e-4 v 15.04133 l -17.79195,-0.62605 c 0.56802,-1.02463 1.16784,-2.00591 1.79715,-2.9392 4.29056,-6.36293 9.86031,-10.4794 15.9948,-11.47608 z m -11.58398,1.23046 c -2.73618,2.14114 -5.21058,4.85564 -7.33951,8.01285 -1.05867,1.57004 -2.03555,3.25177 -2.92405,5.02945 l -6.17179,-0.21704 c 4.30031,-5.66704 9.95002,-10.1263 16.43535,-12.82526 z m 28.99257,3.1e-4 c 7.31477,3.04433 13.56771,8.32671 18.01857,15.05741 l -6.9141,-0.24331 c -1.10005,-2.44046 -2.3609,-4.71885 -3.76528,-6.80156 -2.12883,-3.15707 -4.60307,-5.87144 -7.33919,-8.01254 z m -48.16308,16.90125 7.08197,0.24888 c -2.31844,5.906 -3.72863,12.64242 -3.98386,19.82128 l -9.0708,-0.31936 c 0.42584,-7.23084 2.55701,-13.96342 5.97269,-19.7508 z m 10.96226,0.38553 19.79223,0.69623 v 19.96165 l -24.05402,-0.84649 c 0.26353,-7.28659 1.80305,-14.05524 4.26179,-19.81139 z m 25.6156,0.9012 20.45105,0.71973 c 2.27202,5.90324 3.60192,12.7625 3.64223,20.08995 l -24.09328,-0.84803 z m 24.37648,0.85793 7.70338,0.27082 c 3.01741,5.95659 4.72987,12.77422 4.72987,20.02287 0,0.0352 -0.001,0.0702 -0.001,0.10542 l -9.11038,-0.32029 c -0.0231,-7.21859 -1.21066,-14.03882 -3.32164,-20.07882 z m -66.98237,21.77643 9.11007,0.3209 c 0.19841,7.34064 1.60127,14.23339 3.9517,20.26494 l -7.40071,-0.26062 c -3.38598,-5.9675 -5.42081,-12.90104 -5.66106,-20.32522 z m 12.71891,0.44797 24.06361,0.8468 v 20.12581 l -19.72638,-0.69407 c -2.53264,-5.87098 -4.10474,-12.80803 -4.33723,-20.27854 z m 29.88698,1.05146 23.9758,0.84401 c -0.46058,7.41611 -2.2426,14.24692 -4.96081,19.95145 l -19.01499,-0.66903 z m 27.58001,0.97077 9.02938,0.31751 c -0.69199,7.34944 -3.15284,14.13843 -6.92151,19.88281 l -6.72767,-0.23682 c 2.55758,-5.88063 4.18468,-12.67519 4.6198,-19.9635 z m -61.75352,22.12485 6.50724,0.22909 c 0.88731,1.77437 1.86251,3.45308 2.91941,5.02048 2.12893,3.15721 4.60333,5.8717 7.33951,8.01285 -6.65195,-2.76831 -12.42692,-7.38643 -16.76616,-13.26242 z m 10.72792,0.37749 17.62222,0.62048 v 13.49492 c -6.13449,-0.9967 -11.70424,-5.11346 -15.9948,-11.4764 -0.56732,-0.84134 -1.10971,-1.72312 -1.62742,-2.639 z m 23.44559,0.82515 16.7847,0.59081 c -0.25788,0.41568 -0.52018,0.82443 -0.78898,1.22304 -4.29068,6.36314 -9.86098,10.48018 -15.99572,11.4767 z m 20.94447,0.73704 5.71208,0.20127 c -4.10319,4.8587 -9.25073,8.69868 -15.07133,11.12117 2.73612,-2.14112 5.21036,-4.85548 7.33919,-8.01255 0.71098,-1.05439 1.38461,-2.15988 2.02006,-3.30989 z m 35.59318,8.03914 c 4.64297,0 8.35355,3.24479 8.35355,7.3058 0,4.06101 -3.71058,7.30673 -8.35355,7.30673 -2.76654,0 -5.20165,-1.15267 -6.71839,-2.94322 a 3.20248,2.8010725 0 0 0 -0.24146,-1.60826 c -0.45012,-0.86549 -0.68355,-1.80507 -0.68572,-2.75587 0.004,-2.87689 2.0837,-5.4085 5.20041,-6.32854 a 3.20248,2.8010725 0 0 0 1.49603,-0.93027 c 0.31141,-0.0303 0.62787,-0.0464 0.94913,-0.0464 z m -116.174338,0.61894 c 4.258935,0.001 7.642118,2.96136 7.642168,6.68686 -0.002,1.54564 -0.6143,3.04159 -1.735323,4.23644 a 3.20248,2.8010725 0 0 0 -0.656969,1.45986 c -1.431253,1.00825 -3.25544,1.61043 -5.253277,1.61043 -4.642971,0 -8.353552,-3.24572 -8.353552,-7.30673 0,-2.79789 1.761805,-5.20792 4.375877,-6.43675 a 3.20248,2.8010725 0 0 0 1.835184,0.0219 c 0.696755,-0.17936 1.419604,-0.27096 2.145892,-0.27206 z m 54.827368,25.03746 c 3.67331,2.9e-4 6.79232,2.24454 7.50119,5.39704 a 3.20248,2.8010725 0 0 0 0.85112,1.38907 c -0.0594,4.01485 -3.74601,7.20779 -8.35138,7.20779 -4.64297,0 -8.35386,-3.2451 -8.35386,-7.30611 0,-0.24734 0.0142,-0.49166 0.0411,-0.7324 a 3.20248,2.8010725 0 0 0 1.02023,-1.27158 c 1.00451,-2.79749 3.93924,-4.68296 7.29158,-4.68381 z" /><path
       id="path2775"
       style="font-weight:bold;font-size:53.1659px;font-family:Arial;stroke-width:8.20215;stroke-linecap:round;stroke-linejoin:round"
       d="m 153.29829,19.138812 c -3.18892,-0.0251 -5.7695,1.08342 -7.74172,3.32535 -1.97214,2.2308 -2.97207,5.38125 -2.99979,9.45107 -0.0262,3.84742 0.92655,6.89062 2.85789,9.12986 1.93141,2.2281 4.40867,3.35413 7.43194,3.3779 2.44346,0.0192 4.46172,-0.61 6.05462,-1.88743 1.60333,-1.28849 2.75553,-3.26421 3.45705,-5.92756 l -4.44667,-1.55292 c -0.39529,1.78726 -1.03601,3.09434 -1.92176,3.92141 -0.88574,0.82703 -1.93944,1.23571 -3.16117,1.22613 -1.65659,-0.013 -2.99794,-0.6797 -4.02436,-1.99997 -1.02643,-1.32026 -1.52915,-3.52602 -1.50809,-6.61729 0.0198,-2.91337 0.55707,-5.01628 1.61166,-6.30907 1.06493,-1.29273 2.44121,-1.93256 4.12885,-1.91928 1.22173,0.01 2.25442,0.38478 3.09842,1.12536 0.85435,0.74064 1.41201,1.74579 1.67256,3.01555 l 4.55829,-1.13183 c -0.50435,-1.96114 -1.27068,-3.46841 -2.29893,-4.5218 -1.72737,-1.7817 -3.98366,-2.68358 -6.76879,-2.70548 z m -18.62452,1.25241 -16.58529,3.38317 4.2485,24.02341 17.01286,-3.47034 -0.71602,-4.04755 -12.49632,2.54904 -1.15626,-6.53846 11.22999,-2.29058 -0.71602,-4.04786 -11.22999,2.29089 -0.94171,-5.32562 12.06906,-2.46216 z m 36.43069,0.32895 -4.80808,23.9013 4.49336,1.04281 2.10261,-10.45091 8.80462,2.04325 -2.10231,10.45059 4.49336,1.04281 4.8084,-23.90161 -4.49367,-1.04249 -1.89238,9.40717 -8.80462,-2.04294 1.89238,-9.40717 z m -59.9072,5.08695 -16.871577,7.01952 1.391228,3.85741 6.299789,-2.62107 6.8334,18.9445 4.28684,-1.78355 -6.8334,-18.94451 6.28526,-2.61489 z m 85.12893,1.91773 -7.93247,22.92064 4.30909,1.72017 7.93248,-22.92063 z m 11.2742,4.6195 -10.72853,21.56805 15.27383,8.76381 1.80767,-3.63389 -11.21918,-6.43737 2.92004,-5.87005 10.08207,5.78473 1.80768,-3.63389 -10.08239,-5.78473 2.37869,-4.78149 10.8355,6.21693 1.81478,-3.64842 z m -129.257134,9.98129 -3.427058,2.73731 9.074207,13.1029 -16.551285,-7.12989 -3.589059,2.86686 13.587969,19.62064 3.427059,-2.73732 -8.860886,-12.79497 16.225737,6.91193 3.701285,-2.95651 z m 151.942504,6.14459 c -0.61085,0.002 -1.20466,0.10272 -1.7814,0.30235 -1.1389,0.39762 -2.07294,1.08047 -2.80254,2.04851 -1.13351,1.50393 -1.55125,3.25089 -1.25304,5.24122 0.21236,1.41497 1.08418,3.20989 2.6152,5.38498 1.18918,1.69192 1.93432,2.79761 2.23555,3.317 0.43575,0.76509 0.65379,1.41246 0.65418,1.94215 0.015,0.52804 -0.14694,1.01691 -0.48568,1.46636 -0.52767,0.70013 -1.28408,1.05848 -2.26895,1.07495 -0.97029,0.0149 -2.03075,-0.47793 -3.18158,-1.47841 -1.08645,-0.94451 -1.73018,-1.99054 -1.93102,-3.13799 -0.1928,-1.14045 0.0787,-2.42842 0.81402,-3.8636 l -3.75044,-2.6594 v 3e-4 c -1.36915,2.32913 -1.87428,4.5724 -1.51551,6.72984 0.36528,2.1488 1.6665,4.19558 3.90378,6.14057 1.53713,1.33631 2.99339,2.2232 4.36877,2.66065 1.38189,0.42877 2.7129,0.41277 3.99282,-0.0482 1.27993,-0.46101 2.33017,-1.23616 3.15098,-2.3252 0.9055,-1.20141 1.42714,-2.41482 1.56467,-3.64007 0.15209,-1.2269 -0.0144,-2.43737 -0.49961,-3.63173 -0.47063,-1.196 -1.40914,-2.77011 -2.81522,-4.72213 -1.40609,-1.95202 -2.18133,-3.32712 -2.32583,-4.12515 -0.11306,-0.62764 -2.1e-4,-1.16623 0.33854,-1.61568 0.37131,-0.49264 0.85672,-0.72127 1.45645,-0.68634 0.93275,0.0526 1.91836,0.53013 2.95652,1.43266 1.00597,0.87455 1.59547,1.74493 1.76871,2.61087 0.18781,0.86429 -0.01,1.85122 -0.59297,2.96084 l 3.70005,2.93766 c 1.25956,-1.79491 1.7204,-3.705 1.38195,-5.73032 -0.3304,-2.01832 -1.60623,-3.99285 -3.82742,-5.92384 -1.36007,-1.18239 -2.68929,-1.97313 -3.98726,-2.3719 -0.64496,-0.19588 -1.27288,-0.29279 -1.88372,-0.29091 z m -177.96496,17.8207 -3.226106,3.90502 11.145285,23.35346 3.236615,-3.9177 -2.621383,-5.19607 6.040094,-7.31137 5.188043,2.08931 3.319161,-4.01755 z m 2.323969,5.78225 8.401781,3.50188 -4.122982,4.9908 z m 199.232191,4.16657 c -2.428,0.003 -4.95049,0.99042 -7.56735,2.96363 -2.93198,2.21082 -4.68595,4.81063 -5.26224,7.79954 -0.56782,2.98251 0.0166,5.80274 1.75387,8.4602 1.40408,2.14783 3.05273,3.54718 4.94598,4.19842 1.90766,0.653958 4.07495,0.514558 6.50136,-0.41829 l -1.40453,-4.79016 c -1.58443,0.692 -2.94741,0.89104 -4.08866,0.59669 -1.14125,-0.29436 -2.0628,-0.97863 -2.76483,-2.05253 -0.95192,-1.45615 -1.2255,-3.01633 -0.82052,-4.6804 0.40498,-1.66407 1.78547,-3.3842 4.14122,-5.16053 2.22017,-1.67409 4.12622,-2.42539 5.71857,-2.25379 1.5983,0.18071 2.88239,1.01273 3.85215,2.49618 0.70203,1.07391 1.01746,2.19506 0.94604,3.36306 -0.0655,1.17709 -0.50383,2.24807 -1.31518,3.21311 l 3.50435,3.32906 c 1.19394,-1.57962 1.89173,-3.12485 2.09334,-4.63557 0.34784,-2.54492 -0.27838,-5.04161 -1.87878,-7.48976 -1.83243,-2.80308 -4.17085,-4.41602 -7.0155,-4.83899 -0.44315,-0.0671 -0.88966,-0.10035 -1.33929,-0.0999 z M 42.466264,86.748162 c -0.71468,0.009 -1.40798,0.10227 -2.08034,0.27856 -1.34473,0.35257 -2.51952,1.04645 -3.52414,2.08189 -0.74512,0.77211 -1.58797,2.04147 -2.52863,3.80795 l -4.17122,7.833228 19.7641,12.13955 4.294874,-8.06479 c 0.842994,-1.58308 1.376961,-2.93322 1.602077,-4.05033 0.295876,-1.496398 0.304574,-2.823148 0.02628,-3.980458 -0.3655,-1.53113 -1.125956,-3.00404 -2.281305,-4.41823 -0.946103,-1.15757 -2.23246,-2.23585 -3.859266,-3.23507 -1.8515,-1.13723 -3.52967,-1.86048 -5.0347,-2.17001 -0.75701,-0.15752 -1.49304,-0.23167 -2.20773,-0.22229 z m -0.4118,4.83901 c 0.42701,-0.007 0.88354,0.0429 1.36959,0.14932 0.9721,0.21277 2.22219,0.78848 3.75013,1.72698 1.52794,0.93849 2.65962,1.82576 3.39521,2.66188 0.726611,0.8306 1.159663,1.59635 1.299412,2.29707 0.144889,0.69107 0.1134,1.43375 -0.09491,2.228128 -0.156881,0.6082 -0.554132,1.51068 -1.191512,2.70764 l -1.7041,3.20013 -13.09083,-8.040678 1.02548,-1.92576 c 0.93038,-1.74718 1.6179,-2.88145 2.06242,-3.40264 0.58842,-0.70182 1.25072,-1.17254 1.98667,-1.41225 0.36798,-0.11985 0.76543,-0.18309 1.19244,-0.18982 z m 228.944496,6.05493 -20.62727,9.869678 6.52238,15.72396 3.50404,-1.67658 -4.65165,-11.21391 17.12354,-8.1931 z m -222.291956,17.595938 -24.46582,1.83704 -1.488,4.97009 18.9612,16.55159 1.49264,-4.98616 -4.34836,-3.62153 2.78554,-9.30545 5.53214,-0.33236 z m -11.1663,5.69321 -1.90134,6.35173 -7.10207,-5.92137 z m 242.627996,0.18117 -11.83781,2.91695 c -2.48257,0.61167 -4.32586,1.23106 -5.53028,1.85868 -0.8115,0.42812 -1.53799,1.08083 -2.17928,1.95761 -0.63121,0.87428 -1.06918,1.95751 -1.31363,3.2499 -0.23205,1.30074 -0.105,3.08912 0.3812,5.3652 0.40284,1.88589 0.95158,3.35956 1.64566,4.4207 0.70418,1.05867 1.50857,1.84153 2.41363,2.3487 0.90737,0.51803 1.93883,0.77147 3.0944,0.76054 1.15557,-0.0109 3.06547,-0.34462 5.72969,-1.00106 l 11.65602,-2.8718 -1.02796,-4.81242 -12.27651,3.02484 c -1.75596,0.43265 -3.02746,0.67198 -3.81444,0.71757 -0.78697,0.0456 -1.51684,-0.2138 -2.18979,-0.77817 -0.66285,-0.56684 -1.14032,-1.53305 -1.43204,-2.89869 -0.28708,-1.34398 -0.24129,-2.47347 0.13697,-3.38811 0.39066,-0.90629 1.0179,-1.57427 1.88217,-2.00399 0.53967,-0.25847 1.76334,-0.62262 3.67068,-1.09257 l 12.01928,-2.96147 z M 34.250294,139.60926 c -1.02262,0.0111 -1.95804,0.29714 -2.80595,0.85854 -1.04359,0.69098 -1.8362,1.75592 -2.37807,3.19457 -0.3436,-1.09929 -0.92953,-2.00164 -1.7579,-2.70671 -0.82732,-0.71613 -1.77154,-1.13178 -2.83254,-1.24747 -0.97859,-0.10669 -1.88296,0.046 -2.71289,0.45849 -0.84024,0.41135 -1.53261,0.9673 -2.07757,1.66793 -0.54391,0.68956 -0.93293,1.50234 -1.16709,2.43805 -0.2434,0.92352 -0.45614,2.34763 -0.63811,4.27262 l -0.91944,9.72468 22.65197,2.46989 0.7828,-8.2809 c 0.27535,-3.13312 0.41064,-5.1135 0.40562,-5.94116 -0.0105,-1.32005 -0.2624,-2.45406 -0.75559,-3.40201 -0.50245,-0.96014 -1.21396,-1.74752 -2.13415,-2.362 -0.92944,-0.62667 -1.9091,-0.99603 -2.9392,-1.10835 -0.24529,-0.0267 -0.4859,-0.0387 -0.72189,-0.0362 z m -9.95934,4.92959 c 0.12332,-0.001 0.25079,0.005 0.38213,0.0192 0.73136,0.0797 1.30058,0.38788 1.7078,0.92408 0.39797,0.524 0.60355,1.21151 0.61678,2.06242 0.008,0.47026 -0.0791,1.66214 -0.26,3.57607 l -0.30422,3.21962 -5.23812,-0.57134 0.2668,-2.8211 c 0.21857,-2.3122 0.37643,-3.70891 0.47395,-4.19007 0.17009,-0.80856 0.49593,-1.39314 0.97757,-1.75418 0.38381,-0.30325 0.84293,-0.45823 1.37731,-0.46467 z m 9.61153,0.13912 c 0.12141,6.6e-4 0.246,0.008 0.37347,0.0219 0.80348,0.0876 1.42526,0.38995 1.86548,0.90739 0.43097,0.50526 0.6738,1.12987 0.72839,1.87352 0.0477,0.48582 -0.0123,1.61367 -0.17962,3.38378 l -0.42974,4.54684 -6.05679,-0.66037 0.3747,-3.96593 c 0.21125,-2.23475 0.45644,-3.67229 0.7355,-4.31249 0.28011,-0.65127 0.674,-1.12814 1.18131,-1.4305 0.41218,-0.24566 0.8812,-0.36707 1.4073,-0.36419 z m 251.511766,5.69816 -22.76451,0.44983 0.14252,8.32171 c 0.0746,3.14601 0.16032,5.12964 0.25723,5.95074 0.15703,1.30929 0.53317,2.40314 1.12812,3.28114 0.6055,0.88892 1.39931,1.57948 2.38117,2.07169 0.99241,0.5031 2.006,0.74417 3.04122,0.72375 1.31473,-0.026 2.45189,-0.44877 3.4113,-1.26849 0.95939,-0.81973 1.62823,-1.97841 2.00646,-3.47622 0.46323,1.04743 1.14527,1.86826 2.04602,2.46217 0.90095,0.60502 1.88437,0.89691 2.95065,0.87586 0.98345,-0.0194 1.86451,-0.28704 2.64271,-0.8029 0.78855,-0.51606 1.41428,-1.15692 1.87754,-1.92237 0.46344,-0.75432 0.75936,-1.61103 0.88791,-2.57006 0.13912,-0.94811 0.19236,-2.38938 0.15922,-4.32394 z m -3.70438,5.01151 0.0485,2.83502 c 0.0398,2.32368 0.0381,3.73076 -0.005,4.22099 -0.0791,0.82458 -0.33759,1.44686 -0.77569,1.86702 -0.42755,0.43106 -0.99334,0.65356 -1.69729,0.66748 -0.735,0.0145 -1.33453,-0.2185 -1.7984,-0.69871 -0.45333,-0.46928 -0.7339,-1.12528 -0.84154,-1.96843 -0.0597,-0.46593 -0.10587,-1.66067 -0.13881,-3.58411 l -0.0556,-3.23538 z m -9.05288,0.1787 0.0683,3.98571 c 0.0385,2.24586 -0.0454,3.7045 -0.25135,4.37588 -0.20578,0.6825 -0.54364,1.20659 -1.01374,1.57178 -0.47011,0.36519 -1.04683,0.55444 -1.73007,0.56793 -0.80747,0.016 -1.45843,-0.20488 -1.95297,-0.66223 -0.48401,-0.44643 -0.79441,-1.0352 -0.9312,-1.76655 -0.10135,-0.47624 -0.16739,-1.60394 -0.19787,-3.38285 l -0.0782,-4.56941 z m -232.677926,9.92471 -22.7472,1.05239 0.19787,4.93267 22.74719,-1.05238 z m 70.178796,78.95714 c -1.36672,1.95689 -2.4952,4.09521 -3.38563,6.41448 -1.02504,2.67132 -1.53746,5.50287 -1.53746,8.49515 0,2.41246 0.4142,4.90792 1.24252,7.48604 0.82831,2.57813 2.03458,5.06307 3.61873,7.45482 h 2.99733 c -0.91115,-1.9776 -1.54793,-3.49445 -1.91031,-4.55055 -0.54876,-1.60486 -0.98369,-3.29772 -1.30466,-5.0786 -0.31062,-1.78087 -0.46591,-3.5203 -0.46591,-5.21834 0,-2.46423 0.26402,-4.79388 0.79207,-6.98891 0.53841,-2.20539 1.51701,-4.87685 2.93549,-8.01409 z m 67.40437,0 c -3.189,0 -5.76225,1.05098 -7.71915,3.15283 -1.95688,2.09149 -2.93518,5.03208 -2.93518,8.82162 0,3.58245 0.97319,6.40891 2.91972,8.47969 1.94655,2.06042 4.43148,3.09069 7.45482,3.09069 2.44353,0 4.45749,-0.60043 6.04164,-1.80149 1.59451,-1.21141 2.7335,-3.05957 3.41686,-5.5445 l -4.4575,-1.41318 c -0.38309,1.66698 -1.01477,2.88857 -1.89485,3.66511 -0.88008,0.77654 -1.93076,1.16492 -3.15252,1.16492 -1.65662,0 -3.00288,-0.61095 -4.03827,-1.83271 -1.03539,-1.22176 -1.55292,-3.27177 -1.55292,-6.15015 0,-2.71273 0.52293,-4.67503 1.56869,-5.88644 1.0561,-1.21142 2.42787,-1.81695 4.11556,-1.81695 1.22176,0 2.25713,0.34151 3.10614,1.02488 0.85939,0.68335 1.42377,1.61539 1.69298,2.79575 l 4.55055,-1.08733 c -0.5177,-1.82229 -1.29445,-3.21989 -2.32985,-4.19316 -1.73945,-1.64628 -4.00151,-2.46958 -6.78672,-2.46958 z m 11.84987,0 c 1.41849,3.13724 2.39167,5.8087 2.91972,8.01409 0.52805,2.19503 0.79208,4.52468 0.79208,6.98891 0,1.21141 -0.0724,2.39696 -0.21735,3.55659 -0.14495,1.14929 -0.36752,2.36577 -0.66779,3.64966 -0.30026,1.28388 -0.62646,2.41777 -0.97849,3.4014 -0.35204,0.98362 -0.95757,2.39684 -1.81695,4.23984 h 3.01278 c 1.78088,-2.70237 3.05985,-5.44112 3.83639,-8.21597 0.68336,-2.47459 1.02488,-4.79372 1.02488,-6.95769 0,-2.56777 -0.43494,-5.09926 -1.30467,-7.59456 -0.85937,-2.49529 -2.07075,-4.85618 -3.63419,-7.08227 z m -73.07286,0.3883 v 22.76822 h 4.59723 v -22.76822 z m 8.99259,0 v 22.76822 h 7.74975 c 2.93016,-0.0207 4.77832,-0.0724 5.54451,-0.1552 1.22176,-0.1346 2.24692,-0.49173 3.07523,-1.07155 0.83867,-0.59017 1.49618,-1.37203 1.97246,-2.3453 0.48663,-0.98363 0.72993,-1.99316 0.72993,-3.02855 0,-1.31495 -0.37276,-2.45905 -1.11824,-3.43231 -0.74548,-0.97327 -1.81209,-1.66171 -3.19952,-2.06552 0.98363,-0.44522 1.76038,-1.11293 2.32985,-2.00337 0.57982,-0.89043 0.86967,-1.86903 0.86967,-2.93549 0,-0.98362 -0.23309,-1.8688 -0.69902,-2.65569 -0.46592,-0.79726 -1.05073,-1.43404 -1.7548,-1.91032 -0.69371,-0.47628 -1.48578,-0.78685 -2.37622,-0.93181 -0.88008,-0.15531 -2.22092,-0.23311 -4.0225,-0.23311 z m 21.32381,0 v 3.85185 h 6.75581 v 18.91637 h 4.59723 v -18.91637 h 6.74035 v -3.85185 z m -16.72689,3.78971 h 2.64024 c 2.16397,0 3.47388,0.0258 3.92945,0.0776 0.76619,0.0932 1.34079,0.36231 1.72389,0.80753 0.39345,0.43486 0.59019,1.00435 0.59019,1.70843 0,0.73512 -0.22768,1.33045 -0.68325,1.78602 -0.44522,0.44522 -1.06127,0.71435 -1.84817,0.80753 -0.43486,0.0518 -1.54803,0.0779 -3.33926,0.0779 h -3.01309 z m 0,9.05442 h 3.71211 c 2.09149,0 3.44764,0.10873 4.06888,0.32616 0.63159,0.21744 1.11308,0.56436 1.4444,1.04064 0.33133,0.47629 0.49713,1.05599 0.49713,1.73935 0,0.80761 -0.21746,1.4549 -0.65233,1.94153 -0.42451,0.47628 -0.97838,0.77634 -1.66174,0.90059 -0.44522,0.0932 -1.49621,0.13974 -3.15284,0.13974 h -4.25561 z" /><path
       id="path2555"
       style="stroke:#000000;stroke-width:0.230217;stroke-linecap:round;stroke-linejoin:round;stroke-dasharray:none;stroke-opacity:1"
       d="M 57.983098,213.886 A 19.162702,18.879776 0 0 0 38.820634,232.76558 19.162702,18.879776 0 0 0 57.983098,251.64547 19.162702,18.879776 0 0 0 77.145563,232.76558 19.162702,18.879776 0 0 0 57.983098,213.886 Z m 184.033492,0 a 19.162705,18.879779 0 0 0 -19.16246,18.87958 19.162705,18.879779 0 0 0 19.16246,18.87989 19.162705,18.879779 0 0 0 19.16277,-18.87989 A 19.162705,18.879779 0 0 0 242.01659,213.886 Z M 51.850565,224.31217 c 1.633861,0 2.917593,0.44042 3.851228,1.32136 0.933636,0.88092 1.400503,1.9766 1.400503,3.28669 0,0.74541 -0.1358,1.45681 -0.406856,2.13446 -0.263526,0.6701 -0.685024,1.374 -1.264781,2.11188 -0.383993,0.48941 -1.076477,1.1933 -2.077877,2.11189 -1.001401,0.91856 -1.637708,1.52846 -1.908765,1.82962 -0.263523,0.30118 -0.478343,0.59499 -0.643983,0.88111 h 6.302262 v 2.94755 H 45.977724 c 0.12048,-1.11433 0.48158,-2.16823 1.08393,-3.16211 0.60234,-1.00139 1.79235,-2.32659 3.56927,-3.97551 1.430571,-1.33269 2.307515,-2.23608 2.631274,-2.71042 0.436699,-0.65505 0.655113,-1.30278 0.655113,-1.94278 0,-0.70776 -0.191972,-1.25003 -0.575967,-1.6265 -0.376467,-0.38399 -0.899818,-0.57597 -1.569924,-0.57597 -0.662576,0 -1.189526,0.1998 -1.581056,0.59885 -0.39152,0.39905 -0.61776,1.06149 -0.67799,1.9876 l -3.16211,-0.31627 c 0.18823,-1.7468 0.77918,-3.00049 1.77305,-3.76096 0.99387,-0.76045 2.23644,-1.14049 3.727251,-1.14049 z m 12.762198,0 c 1.603747,0 2.857436,0.57201 3.760953,1.71647 1.076696,1.35526 1.614752,3.60309 1.614752,6.74282 0,3.13219 -0.541973,5.38329 -1.626191,6.75363 -0.89599,1.1294 -2.145767,1.69421 -3.749514,1.69421 -1.611272,0 -2.910026,-0.61769 -3.896366,-1.8525 -0.986338,-1.24233 -1.479648,-3.45198 -1.479648,-6.62935 0,-3.11714 0.54197,-5.36074 1.626191,-6.73107 0.895986,-1.1294 2.146082,-1.69421 3.749823,-1.69421 z m 171.271297,0 c 1.63387,0 2.91759,0.44042 3.85123,1.32136 0.93363,0.88092 1.4005,1.97659 1.4005,3.28669 0,0.74541 -0.13549,1.45681 -0.40655,2.13446 -0.26353,0.67011 -0.68533,1.37401 -1.26509,2.11188 -0.38399,0.48941 -1.07648,1.19331 -2.07787,2.11189 -1.00141,0.91858 -1.63772,1.52844 -1.90877,1.82962 -0.26352,0.30116 -0.47833,0.59499 -0.64398,0.88111 h 6.30226 v 2.94755 h -11.12457 c 0.12047,-1.11432 0.48189,-2.16824 1.08423,-3.16211 0.60234,-1.0014 1.79205,-2.32659 3.56896,-3.97551 1.43058,-1.33269 2.30783,-2.23607 2.63159,-2.71042 0.4367,-0.65505 0.65481,-1.30278 0.65481,-1.94278 0,-0.70775 -0.19198,-1.25003 -0.57597,-1.6265 -0.37647,-0.38399 -0.89951,-0.57597 -1.56962,-0.57597 -0.66258,0 -1.18985,0.19979 -1.58136,0.59885 -0.39152,0.39906 -0.61745,1.06149 -0.67768,1.9876 l -3.16211,-0.31627 c 0.18824,-1.7468 0.77918,-3.0005 1.77304,-3.76096 0.99388,-0.76045 2.23614,-1.14049 3.72695,-1.14049 z m 12.86391,0 c 1.63386,0 2.9176,0.44042 3.85123,1.32136 0.93364,0.88092 1.4005,1.97659 1.4005,3.28669 0,0.74541 -0.1355,1.45681 -0.40655,2.13446 -0.26352,0.67011 -0.68534,1.37401 -1.26509,2.11188 -0.38399,0.48941 -1.07647,1.19331 -2.07787,2.11189 -1.0014,0.91858 -1.63772,1.52844 -1.90877,1.82962 -0.26353,0.30116 -0.47802,0.59499 -0.64367,0.88111 h 6.30195 v 2.94755 h -11.12457 c 0.12047,-1.11432 0.48189,-2.16824 1.08423,-3.16211 0.60235,-1.0014 1.79174,-2.32659 3.56866,-3.97551 1.43057,-1.33269 2.30782,-2.23607 2.63158,-2.71042 0.43671,-0.65505 0.65512,-1.30278 0.65512,-1.94278 0,-0.70775 -0.19198,-1.25003 -0.57597,-1.6265 -0.37647,-0.38399 -0.89982,-0.57597 -1.56993,-0.57597 -0.66259,0 -1.18953,0.19979 -1.58105,0.59885 -0.39153,0.39906 -0.61745,1.06149 -0.67768,1.9876 l -3.16242,-0.31627 c 0.18824,-1.7468 0.77948,-3.0005 1.77336,-3.76096 0.99386,-0.76045 2.23614,-1.14049 3.72694,-1.14049 z m -184.135207,2.63127 c -0.383991,0 -0.726477,0.12439 -1.027654,0.37285 -0.30117,0.24094 -0.534913,0.67777 -0.70056,1.31023 -0.21835,0.8207 -0.327402,2.20238 -0.327402,4.14494 0,1.94256 0.09794,3.27886 0.293703,4.00921 0.195763,0.7228 0.44062,1.2047 0.734259,1.44564 0.301177,0.24093 0.643663,0.3614 1.027654,0.3614 0.383997,0 0.726482,-0.12047 1.027654,-0.3614 0.30117,-0.24847 0.534609,-0.6889 0.700252,-1.32137 0.218352,-0.81315 0.327402,-2.19092 0.327402,-4.13348 0,-1.94256 -0.09763,-3.27527 -0.293395,-3.99809 -0.195766,-0.73034 -0.444214,-1.21614 -0.745389,-1.45708 -0.293644,-0.24846 -0.632527,-0.37285 -1.016524,-0.37285 z" /></g></svg>
