<svg width="36" height="36" viewBox="0 0 36 36" fill="none" xmlns="http://www.w3.org/2000/svg">
<path fill-rule="evenodd" clip-rule="evenodd" d="M18 36C27.9411 36 36 27.9411 36 18C36 8.05887 27.9411 0 18 0C8.05887 0 0 8.05887 0 18C0 27.9411 8.05887 36 18 36ZM18 33.84C26.7482 33.84 33.84 26.7482 33.84 18C33.84 9.25181 26.7482 2.16 18 2.16C9.25181 2.16 2.16 9.25181 2.16 18C2.16 26.7482 9.25181 33.84 18 33.84ZM10.08 14.485V24.9539H13.4713V14.485H10.08ZM11.9986 9.36C10.8385 9.36 10.08 10.1418 10.08 11.1683C10.08 12.1735 10.816 12.9778 11.9546 12.9778H11.9762C13.1587 12.9778 13.8952 12.1735 13.8952 11.1683C13.8731 10.1418 13.1587 9.36 11.9986 9.36ZM22.0154 14.485C20.2148 14.485 19.4087 15.5011 18.9586 16.2139V14.7311H15.5669C15.6116 15.7134 15.5669 25.2 15.5669 25.2H18.9586V19.3533C18.9586 19.0404 18.9806 18.7283 19.0703 18.5043C19.3154 17.8792 19.8734 17.2321 20.8104 17.2321C22.038 17.2321 22.5287 18.192 22.5287 19.5989V25.1997H25.9199L25.92 19.1972C25.92 15.9816 24.247 14.485 22.0154 14.485Z" fill="inherit"/>
</svg>
