<svg width="181" height="102"><path fill-rule="evenodd" d="m30.31 0 1.618.903 23.227 12.965L78.38.903 80 0l1.619.903 23.226 12.965L128.072.903 129.691 0l1.618.903 23.227 12.965L177.763.903 181 6.665l-24.845 13.868-1.619.903-1.619-.903-23.226-12.964-23.227 12.964-1.619.903-1.618-.903L80 7.569 56.773 20.533l-1.618.903-1.619-.903L30.309 7.569 7.083 20.533l-1.62.903-1.618-.903L-21 6.665l3.237-5.762L5.464 13.868 28.69.903 30.309 0Zm0 40.282 1.618.903L55.155 54.15 78.38 41.184 80 40.282l1.619.903 23.226 12.965 23.227-12.965 1.619-.903 1.618.903 23.227 12.965 23.227-12.965L181 46.947l-24.845 13.868-1.619.903-1.619-.903-23.226-12.965-23.227 12.965-1.619.903-1.618-.903L80 47.85 56.773 60.816l-1.618.903-1.619-.903L30.309 47.85 7.083 60.816l-1.62.903-1.618-.903L-21 46.947l3.237-5.762L5.464 54.15 28.69 41.184l1.618-.903Zm1.618 41.185-1.619-.903-1.618.903L5.464 94.432l-23.227-12.965L-21 87.23l24.845 13.868 1.619.903 1.619-.903 23.226-12.965 23.227 12.965 1.619.903 1.618-.903L80 88.132l23.227 12.965 1.618.903 1.619-.903 23.227-12.965 23.226 12.965 1.619.903 1.619-.903L181 87.229l-3.237-5.762-23.227 12.965-23.227-12.965-1.618-.903-1.619.903-23.227 12.965-23.226-12.965L80 80.564l-1.619.903-23.226 12.965-23.227-12.965Z" clip-rule="evenodd"/></svg>