<svg width="181" height="102" viewBox="0 0 181 102" fill="none" xmlns="http://www.w3.org/2000/svg">
<path fill-rule="evenodd" clip-rule="evenodd" d="M30.3093 0L31.9279 0.903431L55.1546 13.8676L78.3814 0.903431L80 0L81.6186 0.903431L104.845 13.8676L128.072 0.903431L129.691 0L131.309 0.903431L154.536 13.8676L177.763 0.903431L181 6.66511L156.155 20.5327L154.536 21.4361L152.917 20.5327L129.691 7.56854L106.464 20.5327L104.845 21.4361L103.227 20.5327L80 7.56854L56.7733 20.5327L55.1546 21.4361L53.536 20.5327L30.3093 7.56854L7.08255 20.5327L5.46395 21.4361L3.84535 20.5327L-21 6.66511L-17.7628 0.903431L5.46395 13.8676L28.6907 0.903431L30.3093 0ZM30.3093 40.282L31.9279 41.1854L55.1546 54.1495L78.3814 41.1854L80 40.282L81.6186 41.1854L104.845 54.1495L128.072 41.1854L129.691 40.282L131.309 41.1854L154.536 54.1495L177.763 41.1854L181 46.9471L156.155 60.8146L154.536 61.7181L152.917 60.8146L129.691 47.8505L106.464 60.8146L104.845 61.7181L103.227 60.8146L80 47.8505L56.7733 60.8146L55.1546 61.7181L53.536 60.8146L30.3093 47.8505L7.08255 60.8146L5.46395 61.7181L3.84535 60.8146L-21 46.9471L-17.7628 41.1854L5.46395 54.1495L28.6907 41.1854L30.3093 40.282ZM31.9279 81.4673L30.3093 80.5639L28.6907 81.4673L5.46395 94.4315L-17.7628 81.4673L-21 87.229L3.84535 101.097L5.46395 102L7.08255 101.097L30.3093 88.1324L53.536 101.097L55.1546 102L56.7733 101.097L80 88.1324L103.227 101.097L104.845 102L106.464 101.097L129.691 88.1324L152.917 101.097L154.536 102L156.155 101.097L181 87.229L177.763 81.4673L154.536 94.4315L131.309 81.4673L129.691 80.5639L128.072 81.4673L104.845 94.4315L81.6186 81.4673L80 80.5639L78.3814 81.4673L55.1546 94.4315L31.9279 81.4673Z" fill="#CAD9F2"/>
</svg>
