<svg width="137" height="153" fill="none"><path fill="#C2CEFF" d="m76.5 21.963 34.8 20.092a16 16 0 0 1 8 13.856v40.184a16 16 0 0 1-8 13.856l-34.8 20.092a16 16 0 0 1-16 0l-34.8-20.092a16 16 0 0 1-8-13.856V55.91a16 16 0 0 1 8-13.856l34.8-20.092a16 16 0 0 1 16 0Z"/><path fill="#C2CEFF" fill-rule="evenodd" d="M78.5 2.68a20 20 0 0 0-20 0L10 30.68a20 20 0 0 0-10 17.32v56.003a20 20 0 0 0 10 17.321l48.5 28.001a19.998 19.998 0 0 0 20 0l48.5-28.001a20 20 0 0 0 10-17.321V48.001a20 20 0 0 0-10-17.32L78.5 2.679Zm-20 15.819a20 20 0 0 1 20 0l34.8 20.092a20 20 0 0 1 10 17.32v40.184a19.999 19.999 0 0 1-10 17.32l-34.8 20.092a19.998 19.998 0 0 1-20 0l-34.8-20.092a19.999 19.999 0 0 1-10-17.32V55.91a20 20 0 0 1 10-17.32l34.8-20.092Z" clip-rule="evenodd"/></svg>