<svg width="187" height="133" fill="none"><g clip-path="url(#a)"><path fill="#B16E4B" d="M24.458 77.855c6.147-1.292 11.075-2.158 15.906-3.416 2.806-.726 6.027-1.616 4.86-6.692-9.862 1.141-19.662 1.49-29.145 4.074-3.926 1.074-5.082 3.498-4.422 7.61.234 1.497.748 2.94 1.25 4.373 2.644 7.385 5.31 14.77 8.022 22.134.896 2.44 2.07 5.049 5.302 4.147 2.896-.815 3.642-3.498 3.172-6.158-.513-2.972-1.495-5.859-2.366-8.767-.62-2.069-1.386-4.106-1.221-6.638l2.037 2.07c7.475 7.522 11.942 8.483 21.737 4.484 7.848-3.21 14.702-7.9 20.23-14.385 1.318-1.541 2.613-3.105 3.997-4.579 5.727-6.038 10.087-5.658 14.17 1.66 2.081 3.732 3.389 7.893 4.965 11.9 4.751 12.022 11.387 15.476 23.901 11.923 9.35-2.652 17.897-6.972 25.289-13.432 2.281-2.003 4.573-4.06 7.141-5.615 4.136-2.479 6.675-1.723 8.179 2.909 1.571 4.788 2.335 9.838 3.335 14.789.699 3.476.895 7.07 1.862 10.459 2.021 7.091 6.435 12.202 14.003 13.342a112.92 112.92 0 0 0 17.354 1.249c3.828-.027 7.444-1.483 9.157-6.559-1.953-.093-3.526-.161-5.098-.273-6.034-.37-12.104-.483-18.091-1.187-5.809-.681-8.814-4.587-9.698-10.163-.745-4.759-1.087-9.583-1.977-14.287-.805-4.214-1.631-8.539-3.298-12.435-3.607-8.408-11.611-10.868-19.437-6.063-3.644 2.238-6.925 5.092-10.16 7.924-6.426 5.642-13.897 9.256-22.049 11.436-6.754 1.801-9.098.433-11.817-5.926-2.193-5.106-3.904-10.486-6.713-15.228-1.84-3.105-4.865-5.862-7.975-7.761-5.576-3.39-11.263-2.463-15.985 2.054-2.551 2.424-4.904 5.14-6.99 7.992-4.839 6.625-11.619 10.4-18.93 13.48-3.492 1.47-6.595 1.49-9.628-1.658-2.9-3.057-6.521-5.361-10.87-8.787Z"/></g><defs><clipPath id="a"><path fill="#fff" d="M87.523 0 0 86.194l117.143 118.95 87.523-86.194z"/></clipPath></defs></svg>