<svg width="169" height="115" fill="none"><g clip-path="url(#a)"><path fill="#B16E4B" d="M38.873 54.401c3.274 13.546 8.417 18.93 17.092 18.908 7.484-.017 15.175-5.964 16.768-12.96 1.744-7.633-2.453-12.795-15.857-18.629 24.357-12.896 50.014-16.176 77.628-18.336-4.531 6.662-12.068 8.313-15.583 15.976 3.125-.692 4.909-.741 6.355-1.458a1040.137 1040.137 0 0 0 23.766-12.214c6.284-3.34 7.005-7.02 1.639-12.01-4.235-3.928-9.316-6.928-14.411-10.614-3.6 6.421 1.512 9.328 3.85 12.952-32.632 2.873-64.785 5.417-92.733 25.009C19.347 60.672.898 87.084-10.706 118.778c-.604 1.635-.12 3.668.821 5.737 5.949-13.119 12.067-25.861 20.367-37.396 8.297-11.55 15.42-24.118 28.391-32.718Zm12.425-4.906c6.63-1.537 13.561 1.398 14.944 6.32 1.148 4.095-2.665 9.321-7.764 10.605-5.59 1.41-10.853-1.946-12.107-7.69-1.112-5.103.562-8.218 4.927-9.235Z"/></g><defs><clipPath id="a"><path fill="#fff" d="M168.835 84.944 150.035 0-28.998 39.623l18.8 84.944z"/></clipPath></defs></svg>