<svg width="36" height="36" viewBox="0 0 36 36" fill="none" xmlns="http://www.w3.org/2000/svg">
<path fill-rule="evenodd" clip-rule="evenodd" d="M18 36C27.9411 36 36 27.9411 36 18C36 8.05887 27.9411 0 18 0C8.05887 0 0 8.05887 0 18C0 27.9411 8.05887 36 18 36ZM18 33.84C26.7482 33.84 33.84 26.7482 33.84 18C33.84 9.25181 26.7482 2.16 18 2.16C9.25181 2.16 2.16 9.25181 2.16 18C2.16 26.7482 9.25181 33.84 18 33.84ZM17.7712 14.7991L17.8056 15.3908L17.2333 15.3183C15.1503 15.0406 13.3305 14.0987 11.7853 12.5168L11.03 11.7319L10.8354 12.3115C10.4234 13.6036 10.6866 14.9682 11.545 15.8859C12.0028 16.3931 11.8998 16.4655 11.1101 16.1636C10.8354 16.067 10.595 15.9946 10.5721 16.0308C10.492 16.1153 10.7667 17.2142 10.9842 17.6489C11.2818 18.2527 11.8884 18.8444 12.5522 19.1946L13.113 19.4723L12.4492 19.4844C11.8082 19.4844 11.7853 19.4965 11.854 19.75C12.0829 20.5349 12.9871 21.3682 13.9943 21.7304L14.7039 21.984L14.0858 22.3704C13.1702 22.9259 12.0944 23.2399 11.0185 23.264C10.5035 23.2761 10.08 23.3244 10.08 23.3606C10.08 23.4814 11.4763 24.1576 12.2889 24.4233C14.7268 25.2082 17.6224 24.87 19.797 23.5297C21.3421 22.5757 22.8873 20.6799 23.6083 18.8444C23.9975 17.8663 24.3866 16.0791 24.3866 15.2217C24.3866 14.6663 24.4209 14.5938 25.0619 13.9297C25.4396 13.5432 25.7944 13.1206 25.863 12.9998C25.9775 12.7704 25.966 12.7704 25.3823 12.9757C24.4095 13.338 24.2721 13.2897 24.7528 12.7463C25.1076 12.3598 25.5311 11.6595 25.5311 11.4542C25.5311 11.418 25.3594 11.4783 25.1649 11.587C24.9589 11.7078 24.501 11.8889 24.1577 11.9976L23.5396 12.2029L22.9788 11.8044C22.6698 11.587 22.2349 11.3455 22.006 11.2731C21.4223 11.104 20.5295 11.1281 20.0031 11.3214C18.5724 11.8648 17.6682 13.2655 17.7712 14.7991Z" fill="inherit"/>
</svg>
